:version 1.10
:name ASF
:units
  mass 1
  length 1
  angle deg
:documentation
  ASF file generated by Kaydara
:root
  axis xyz
  order  tx ty tz rx ry rz
  position 0 0 0
  orientation 0 0 0
:bonedata
  begin
    id 1
    name SpineDummy
    direction 0.999998 -0.00179978 1.38929e-006
    length 3.60008
    axis 0 0 0 xyz
  end
  begin
    id 2
    name Spine
    direction 0.964365 0.262802 0.0305839
    length 8.13928
    axis 1.33928 -1.75354 15.2838 xyz
    dof rx ry rz
  end
  begin
    id 3
    name Spine1
    direction 0.811168 0.572065 0.12144
    length 7.14954
    axis 2.2224 -6.9761 35.2157 xyz
    dof rx ry rz
  end
  begin
    id 4
    name Neck
    direction 0 0 0
    length 0
    axis 2.2224 -6.9761 35.2157 xyz
    dof rx ry rz
  end
  begin
    id 5
    name HeadDummy
    direction 0.810939 0.572387 0.121455
    length 3.55534
    axis 2.2224 -6.9761 35.2157 xyz
  end
  begin
    id 6
    name Head
    direction 0.998226 -0.000232542 0.0595419
    length 7.35666
    axis -3.03688 -3.41352 -0.0133467 xyz
    dof rx ry rz
  end
  begin
    id 7
    name R_ClavicleDummy
    direction 0.531669 -0.194489 -0.824319
    length 2.49392
    axis 2.2224 -6.9761 35.2157 xyz
  end
  begin
    id 8
    name R_Clavicle
    direction -0.155119 0.0480802 -0.986725
    length 4.485
    axis -54.2764 80.6538 162.779 xyz
    dof rx ry rz
  end
  begin
    id 9
    name R_UpperArm
    direction -0.955567 0.200068 -0.216484
    length 10.1122
    axis -72.9943 12.5026 168.175 xyz
    dof rx ry rz
  end
  begin
    id 10
    name R_Forearm
    direction -0.61433 0.385743 0.688332
    length 9.39148
    axis -117.015 -43.4982 147.875 xyz
    dof rx ry rz
  end
  begin
    id 11
    name R_Hand
    direction -0.699429 0.0170333 0.714499
    length 3.66324
    axis -45.0303 -36.7097 175.478 xyz
    dof rx ry rz
  end
  begin
    id 12
    name L_ClavicleDummy
    direction 0.40287 -0.36502 0.839319
    length 2.49392
    axis 2.2224 -6.9761 35.2157 xyz
  end
  begin
    id 13
    name L_Clavicle
    direction -0.231271 -0.0726419 0.970174
    length 4.485
    axis 18.4357 -75.9711 -162.563 xyz
    dof rx ry rz
  end
  begin
    id 14
    name L_UpperArm
    direction -0.917494 0.144359 0.370629
    length 10.1122
    axis 56.0417 -21.7544 171.058 xyz
    dof rx ry rz
  end
  begin
    id 15
    name L_Forearm
    direction -0.496786 0.615074 -0.612281
    length 9.39148
    axis 89.8094 37.7546 128.927 xyz
    dof rx ry rz
  end
  begin
    id 16
    name L_Hand
    direction -0.409932 0.64962 -0.640274
    length 3.66324
    axis -0.424369 32.133 128.52 xyz
    dof rx ry rz
  end
  begin
    id 17
    name L_ThighDummy
    direction -1.84081e-006 1.87549e-006 1
    length 3.13049
    axis 0 0 0 xyz
  end
  begin
    id 18
    name L_Thigh
    direction -0.947739 0.307978 0.083308
    length 17.9961
    axis 173.219 -4.77873 161.998 xyz
    dof rx ry rz
  end
  begin
    id 19
    name L_Calf
    direction -0.728814 -0.684427 0.0197583
    length 13.3367
    axis 167.331 -1.13214 -136.799 xyz
    dof rx ry rz
  end
  begin
    id 20
    name L_Foot
    direction -0.9028 0.418719 0.0981191
    length 5.8674
    axis 163.436 11.5135 -155.37 xyz
    dof rx ry rz
  end
  begin
    id 21
    name L_Toe0
    direction -0.35341 0.886259 0.299411
    length 4.75286
    axis 169.316 -17.4222 111.74 xyz
    dof rx ry rz
  end
  begin
    id 22
    name R_ThighDummy
    direction 9.32778e-007 -8.82053e-007 -1
    length 3.13049
    axis 0 0 0 xyz
  end
  begin
    id 23
    name R_Thigh
    direction -0.925064 0.37528 -0.0585023
    length 17.9961
    axis -178.698 3.35385 157.919 xyz
    dof rx ry rz
  end
  begin
    id 24
    name R_Calf
    direction -0.68969 -0.718776 -0.0876886
    length 13.3367
    axis -160.504 5.03065 -133.817 xyz
    dof rx ry rz
  end
  begin
    id 25
    name R_Foot
    direction -0.857405 0.418858 -0.299022
    length 5.8674
    axis -161.328 4.38911 -154.413 xyz
    dof rx ry rz
  end
  begin
    id 26
    name R_Toe0
    direction -0.100745 0.952789 -0.286433
    length 4.75286
    axis 171.683 16.6445 96.0359 xyz
    dof rx ry rz
  end
:hierarchy
  begin
    root SpineDummy L_ThighDummy R_ThighDummy
    SpineDummy Spine
    Spine Spine1
    Spine1 Neck
    Neck HeadDummy R_ClavicleDummy L_ClavicleDummy
    HeadDummy Head
    R_ClavicleDummy R_Clavicle
    R_Clavicle R_UpperArm
    R_UpperArm R_Forearm
    R_Forearm R_Hand
    L_ClavicleDummy L_Clavicle
    L_Clavicle L_UpperArm
    L_UpperArm L_Forearm
    L_Forearm L_Hand
    L_ThighDummy L_Thigh
    L_Thigh L_Calf
    L_Calf L_Foot
    L_Foot L_Toe0
    R_ThighDummy R_Thigh
    R_Thigh R_Calf
    R_Calf R_Foot
    R_Foot R_Toe0
  end

:SAMPLES-PER-SECOND 30
:FULLY-SPECIFIED
:DEGREES
342
root  -11.8799 11.5041 -9.68742 41.3078 -44.2947 0.466374
Spine  1.71068 20.4187 19.6313
Spine1  -3.47228 6.55766 2.06219
Neck  3.97569e-016 0 -2.38542e-015
Head  9.82058 1.19039 52.9587
R_Clavicle  0.0635338 -9.11986 -0.882914
R_UpperArm  39.5573 15.3032 33.9071
R_Forearm  -11.428 -42.152 27.7688
R_Hand  -2.44618 9.28181 -29.3826
L_Clavicle  -0.322171 11.995 -0.4158
L_UpperArm  -26.9565 50.1264 43.4534
L_Forearm  8.05567 15.6902 22.7609
L_Hand  56.0651 -38.6236 -120.008
L_Thigh  -36.767 29.4759 -0.131106
L_Calf  15.4357 -5.36541 33.8105
L_Foot  -1.75843 -10.5795 8.66236
L_Toe0  0.505213 0.0355689 -6.13603
R_Thigh  -5.18711 -35.8079 52.2521
R_Calf  3.92654 -1.70913 -5.38594
R_Foot  0.297391 -4.18907 -9.99974
R_Toe0  -1.78853 -0.272788 -17.3235
343
root  -14.6093 11.3076 -9.0718 40.0701 -31.3219 -7.4306
Spine  1.52287 20.4041 19.9221
Spine1  -3.6766 9.98818 5.54898
Neck  3.97569e-016 0 -2.38542e-015
Head  4.397 0.660367 54.8363
R_Clavicle  0.207049 -12.6568 -0.325952
R_UpperArm  37.3978 10.7162 34.1452
R_Forearm  -15.6727 -47.0902 31.5577
R_Hand  -3.02764 11.0701 -32.222
L_Clavicle  -0.268123 10.881 -0.784901
L_UpperArm  -14.3371 54.2026 53.7858
L_Forearm  26.6235 12.9207 15.4852
L_Hand  64.8288 -51.6728 -109.476
L_Thigh  -37.9053 40.9453 3.28344
L_Calf  5.92723 -6.88225 38.3542
L_Foot  -0.607101 -7.2588 8.74945
L_Toe0  0.505216 0.0356224 -6.13602
R_Thigh  -11.3534 -42.0984 48.9698
R_Calf  2.5895 2.86974 8.80843
R_Foot  0.273284 -5.13281 -11.0961
R_Toe0  -1.78853 -0.272788 -17.3235
344
root  -17.1459 11.6728 -8.10556 36.2967 -19.7004 -13.3516
Spine  0.481588 17.6591 17.6734
Spine1  -3.01113 16.5407 9.11692
Neck  3.97569e-016 0 -2.38542e-015
Head  -0.241985 0.520769 56.8062
R_Clavicle  0.344289 -17.3747 0.413554
R_UpperArm  38.25 4.39338 37.2871
R_Forearm  -19.6913 -51.1222 37.7073
R_Hand  -3.34841 12.0271 -33.3567
L_Clavicle  -0.288675 10.9145 -0.375588
L_UpperArm  2.77413 55.0271 69.1725
L_Forearm  34.2945 8.35594 5.7124
L_Hand  60.354 -61.3289 -91.6238
L_Thigh  -31.3899 50.091 14.2086
L_Calf  -5.93967 -6.67327 41.039
L_Foot  0.614067 -4.12469 9.80976
L_Toe0  0.505218 0.0356752 -6.13602
R_Thigh  -16.0055 -48.9996 39.2984
R_Calf  6.51222 7.65931 24.4555
R_Foot  -0.837246 -8.61649 -8.58616
R_Toe0  -1.78853 -0.272788 -17.3235
345
root  -19.1034 12.4754 -7.0791 29.2444 -9.7107 -20.0679
Spine  0.202095 13.4483 17.9047
Spine1  -1.27926 22.0358 11.9986
Neck  3.97569e-016 0 -2.38542e-015
Head  -3.42611 -1.08345 57.8886
R_Clavicle  0.430125 -22.8836 1.06816
R_UpperArm  37.7517 -6.97647 49.0938
R_Forearm  -14.2792 -44.1479 27.3724
R_Hand  -4.31506 18.1468 -36.1447
L_Clavicle  -0.379712 12.324 0.984272
L_UpperArm  16.5883 52.9098 84.8184
L_Forearm  38.0477 3.83915 -2.19594
L_Hand  42.9242 -63.8166 -66.8226
L_Thigh  -15.3467 56.4559 30.2647
L_Calf  -20.3225 -7.36112 43.1662
L_Foot  2.28859 0.0387662 10.9258
L_Toe0  0.505221 0.0357272 -6.13601
R_Thigh  -15.6559 -53.6902 23.5102
R_Calf  14.1942 10.8964 36.4795
R_Foot  -1.58294 -10.6457 -6.99415
R_Toe0  -1.78853 -0.272788 -17.3235
346
root  -20.6291 13.2997 -6.11357 18.4679 -2.91723 -26.7145
Spine  0.653925 10.088 20.1805
Spine1  0.404339 23.1951 13.7134
Neck  3.97569e-016 0 -2.38542e-015
Head  -4.9288 -3.6923 58.4706
R_Clavicle  0.419967 -27.6928 2.19396
R_UpperArm  26.7327 -29.2773 74.7068
R_Forearm  -20.6835 -8.5547 -5.72417
R_Hand  -11.3036 37.5665 -45.9086
L_Clavicle  -0.448285 14.5934 2.8826
L_UpperArm  24.722 48.3664 97.1814
L_Forearm  39.6564 0.455508 -8.05833
L_Hand  23.7903 -57.9208 -43.7506
L_Thigh  0.867245 57.5162 50.34
L_Calf  -26.0969 -7.58779 42.5659
L_Foot  4.47575 3.3775 15.0973
L_Toe0  0.505223 0.0357783 -6.136
R_Thigh  -7.55726 -53.648 6.24836
R_Calf  19.4356 12.0172 41.4399
R_Foot  -1.60518 -11.3004 -7.60797
R_Toe0  -1.78853 -0.272788 -17.3235
347
root  -21.868 13.9491 -5.0992 4.17287 1.89686 -30.4069
Spine  1.11706 7.71071 21.4075
Spine1  0.941172 18.0969 14.1642
Neck  3.97569e-016 0 -2.38542e-015
Head  -5.36411 -3.21441 59.1257
R_Clavicle  0.345773 -27.9471 3.52203
R_UpperArm  20.9346 -38.4989 83.1208
R_Forearm  -36.9731 2.00794 -11.7359
R_Hand  -9.11159 39.6477 -39.9669
L_Clavicle  -0.439776 16.9015 4.62477
L_UpperArm  26.111 42.0089 101.66
L_Forearm  35.4176 0.723721 -11.0817
L_Hand  17.0874 -52.0627 -36.4764
L_Thigh  6.83002 52.7624 64.2343
L_Calf  -22.2016 -7.7651 41.212
L_Foot  6.44495 5.97384 18.6733
L_Toe0  0.505226 0.0358288 -6.136
R_Thigh  4.21009 -50.3637 -4.4615
R_Calf  18.7161 11.3516 38.698
R_Foot  -1.5273 -10.136 -6.69309
R_Toe0  -1.78853 -0.272788 -17.3235
348
root  -22.7567 14.5039 -3.86316 -13.5839 8.86725 -31.2796
Spine  1.79489 4.54999 20.8436
Spine1  0.708821 6.92144 13.7522
Neck  3.97569e-016 0 -2.38542e-015
Head  -6.49506 2.44272 59.3728
R_Clavicle  0.392738 -23.6207 4.39492
R_UpperArm  19.4553 -47.9797 82.4578
R_Forearm  -47.0436 3.14975 -9.85256
R_Hand  -8.16386 37.7775 -38.3784
L_Clavicle  -0.389624 18.7453 5.67052
L_UpperArm  23.2659 35.6882 100.472
L_Forearm  26.4615 4.06471 -11.2789
L_Hand  18.7513 -51.5323 -40.4038
L_Thigh  3.03355 47.3375 65.4345
L_Calf  -17.8757 -7.67564 42.6413
L_Foot  7.02842 8.02969 17.7551
L_Toe0  0.505228 0.0358784 -6.136
R_Thigh  11.8343 -48.6311 -6.36916
R_Calf  14.6425 9.47152 30.9505
R_Foot  -1.12499 -6.06346 -3.62289
R_Toe0  -1.78853 -0.272788 -17.3235
349
root  -22.9118 15.0174 -2.39029 -32.9202 19.1931 -32.6679
Spine  2.46313 0.280537 19.7955
Spine1  0.387907 -6.7615 13.749
Neck  3.97569e-016 0 -2.38542e-015
Head  -9.24966 9.1125 57.9732
R_Clavicle  0.504085 -18.9833 4.84555
R_UpperArm  20.0713 -54.7607 79.352
R_Forearm  -51.3345 1.28415 -6.7602
R_Hand  -10.3721 39.3557 -43.0776
L_Clavicle  -0.353141 20.2825 5.71438
L_UpperArm  17.682 30.2079 96.4543
L_Forearm  16.443 8.43197 -9.71491
L_Hand  18.8432 -48.4385 -43.45
L_Thigh  2.02799 42.0835 62.9825
L_Calf  -17.9665 -6.91399 44.1666
L_Foot  7.06381 9.09209 16.4822
L_Toe0  0.50523 0.0359273 -6.136
R_Thigh  15.5206 -49.7675 -5.24084
R_Calf  9.8396 7.5811 24.1763
R_Foot  -0.188546 -1.18917 -1.26324
R_Toe0  -1.78853 -0.272788 -17.3235
350
root  -22.0718 15.5049 -0.976402 -52.7587 30.472 -36.6726
Spine  2.36067 -3.61305 19.1351
Spine1  -0.269063 -18.3211 14.6712
Neck  3.97569e-016 0 -2.38542e-015
Head  -12.3996 11.1909 55.1696
R_Clavicle  0.593335 -15.841 5.05208
R_UpperArm  18.6844 -59.0236 78.5903
R_Forearm  -53.1331 1.20716 -6.3632
R_Hand  -15.0244 44.6699 -50.4355
L_Clavicle  -0.371236 20.7497 5.07085
L_UpperArm  15.5941 24.4526 87.3886
L_Forearm  4.93257 9.66328 -5.99116
L_Hand  8.15058 -36.5855 -28.8883
L_Thigh  5.15996 36.8643 62.6247
L_Calf  -18.7019 -6.22356 44.5771
L_Foot  7.41955 10.1089 16.3645
L_Toe0  0.505233 0.0359754 -6.13599
R_Thigh  19.3304 -51.6137 -3.43347
R_Calf  4.66268 6.59035 20.8027
R_Foot  0.684814 2.35389 -0.0631937
R_Toe0  -1.78853 -0.272788 -17.3235
351
root  -20.2769 16.169 0.0410366 -74.13 40.2373 -42.9898
Spine  1.78728 -5.72363 18.495
Spine1  -1.40182 -26.5734 15.4806
Neck  3.97569e-016 0 -2.38542e-015
Head  -13.9752 8.63826 53.1153
R_Clavicle  0.663244 -12.9706 4.99671
R_UpperArm  18.2203 -62.3313 77.5043
R_Forearm  -55.5389 1.31489 -5.97649
R_Hand  -22.9535 50.9486 -61.3532
L_Clavicle  -0.415598 18.6287 4.70216
L_UpperArm  22.7811 21.1622 72.5285
L_Forearm  -17.2089 7.38111 7.33657
L_Hand  0.0293969 -10.9003 -6.067
L_Thigh  7.88233 33.9305 63.9742
L_Calf  -19.0741 -5.86792 46.309
L_Foot  7.21943 10.5687 15.1775
L_Toe0  0.505235 0.0360227 -6.13599
R_Thigh  23.2751 -51.3346 -0.889393
R_Calf  1.69582 6.6618 21.0666
R_Foot  1.50822 5.16318 -0.120289
R_Toe0  -1.78853 -0.272788 -17.3235
352
root  -18.011 17.2278 0.326426 -97.352 47.5106 -51.5111
Spine  1.30305 -6.66601 17.8638
Spine1  -2.39424 -31.7294 15.4421
Neck  3.97569e-016 0 -2.38542e-015
Head  -14.2608 5.58448 52.6928
R_Clavicle  0.740181 -8.64426 4.73713
R_UpperArm  24.1598 -66.1026 71.9901
R_Forearm  -58.3736 0.281993 -3.05108
R_Hand  -35.2551 54.8285 -78.1749
L_Clavicle  -0.473401 14.2595 4.58594
L_UpperArm  4.15634 27.0907 59.8579
L_Forearm  -48.2596 14.9783 18.2247
L_Hand  1.31724 9.25688 7.98508
L_Thigh  9.04161 33.9494 64.8548
L_Calf  -20.7394 -5.6905 48.1389
L_Foot  7.04083 10.4357 14.7716
L_Toe0  0.505237 0.0360693 -6.13599
R_Thigh  27.1164 -49.5292 1.06467
R_Calf  -0.389346 7.04452 22.3945
R_Foot  2.06647 7.07634 -0.0017113
R_Toe0  -1.78853 -0.272788 -17.3235
353
root  -15.8517 18.5826 0.109523 -122.357 52.6033 -63.2068
Spine  0.634483 -7.88285 16.7081
Spine1  -2.99315 -33.4624 15.0524
Neck  3.97569e-016 0 -2.38542e-015
Head  -14.9003 4.48343 52.9162
R_Clavicle  0.841379 -2.63948 4.54763
R_UpperArm  37.4812 -69.5265 61.3938
R_Forearm  -58.7504 -0.452272 0.932846
R_Hand  -50.6562 54.3183 -100.266
L_Clavicle  -0.491151 9.26839 3.81043
L_UpperArm  -7.37955 31.0891 60.1239
L_Forearm  -46.6396 1.44262 1.65575
L_Hand  -0.217197 7.18504 -1.5432
L_Thigh  8.84058 35.4675 64.2283
L_Calf  -22.2012 -6.00987 48.8807
L_Foot  7.35182 11.4984 14.5292
L_Toe0  0.505239 0.0361151 -6.13598
R_Thigh  26.923 -48.5246 4.39033
R_Calf  -2.48719 6.33901 19.9951
R_Foot  2.21405 7.89925 2.29528
R_Toe0  -1.78853 -0.272788 -17.3235
354
root  -13.6231 20.2222 -0.516544 -150.224 55.3318 -79.0962
Spine  -0.379264 -9.8116 14.7351
Spine1  -3.20192 -32.1066 14.4242
Neck  3.97569e-016 0 -2.38542e-015
Head  -16.3751 4.84573 52.9441
R_Clavicle  1.0106 3.52765 4.71176
R_UpperArm  55.5158 -69.6582 47.679
R_Forearm  -53.9528 -1.21829 4.87939
R_Hand  -61.457 47.6885 -120.796
L_Clavicle  -0.383022 4.68173 2.51052
L_UpperArm  -23.4117 34.0785 56.3974
L_Forearm  -39.5608 -8.04227 -9.40371
L_Hand  -0.605638 3.87388 -7.30291
L_Thigh  7.3424 37.2582 62.0971
L_Calf  -22.5101 -6.73405 48.9363
L_Foot  7.54209 13.6219 12.792
L_Toe0  0.505242 0.0361601 -6.13598
R_Thigh  21.2514 -48.5367 10.9475
R_Calf  -2.60464 4.91094 15.2689
R_Foot  2.22503 8.24872 4.93045
R_Toe0  -1.78853 -0.272788 -17.3235
355
root  -11.3857 22.1029 -2.147 -178.884 55.1245 -96.2711
Spine  -1.24304 -10.9786 13.1977
Spine1  -3.00277 -28.972 13.5484
Neck  3.97569e-016 0 -2.38542e-015
Head  -18.9104 5.77693 52.505
R_Clavicle  1.45917 8.6081 6.16109
R_UpperArm  71.2766 -66.2197 38.0594
R_Forearm  -42.8548 -1.76265 7.63955
R_Hand  -60.2747 36.5749 -132.879
L_Clavicle  -0.251995 1.57167 1.66672
L_UpperArm  -41.3798 32.5181 49.4178
L_Forearm  -29.946 -15.2473 -18.3599
L_Hand  -0.500531 0.789582 -8.87747
L_Thigh  5.5587 38.6081 58.7135
L_Calf  -22.736 -7.16326 48.2948
L_Foot  7.53168 14.6696 11.7065
L_Toe0  0.505244 0.0362044 -6.13598
R_Thigh  17.0834 -48.4225 16.6964
R_Calf  -2.08741 4.43552 13.7273
R_Foot  2.25369 8.40199 5.609
R_Toe0  -1.78853 -0.272788 -17.3235
